# xmcd
# Track frame offsets:
# 150
# 11205
# 21382
# 33625
# 44792
# 57570
# 71992
# 82832
# 94995
# 110610
# 121655
#
# Disc length: 1986 seconds
# Revision: 0
# Processed by: cddbd v1.4PL0 Copyright (c) Steve Scherf et al.
# Submitted via: VisiTrax 2.9.5.181 - For more info visit www.synapsa.com
#
DISCID=9f07c00b
DTITLE=Public Enemies - Without love From...
DYEAR=1966
DGENRE=
TTITLE0=Out of Sight
TTITLE1=Green Onions
TTITLE2=Don't Fight it
TTITLE3=I Don't Mind
TTITLE4=Bo Diddley
TTITLE5=Ya-Ya Song
TTITLE6=Little Red Rooster
TTITLE7=Bonnie Maronnie
TTITLE8=Believe Me
TTITLE9=Shake the Kinks loose
TTITLE10=Barry
EXTD=
EXTT0=
EXTT1=
EXTT2=
EXTT3=
EXTT4=
EXTT5=
EXTT6=
EXTT7=
EXTT8=
EXTT9=
EXTT10=
PLAYORDER=
